HIERARCHY
ROOT Hips
{
    OFFSET   0.000000   0.000000   0.000000
    CHANNELS 6 Xposition Yposition Zposition Zrotation Xrotation Yrotation
    JOINT Chest
    {
        OFFSET   0.000000   8.007240   0.000000
        CHANNELS 3 Zrotation Xrotation Yrotation
        JOINT Chest2
        {
            OFFSET   0.000000  22.077100   0.000000
            CHANNELS 3 Zrotation Xrotation Yrotation
            JOINT Neck
            {
                OFFSET   0.000000  23.254800   0.000000
                CHANNELS 3 Zrotation Xrotation Yrotation
                JOINT Head
                {
                    OFFSET   0.000000  14.370000   1.956600
                    CHANNELS 3 Zrotation Xrotation Yrotation
                    End Site
                    {
                        OFFSET   0.000000  19.566000   0.000000
                    }
                }
            }
            JOINT LeftCollar
            {
                OFFSET   3.911900  19.017000  -0.467064
                CHANNELS 3 Zrotation Xrotation Yrotation
                JOINT LeftShoulder
                {
                    OFFSET  10.383700   0.000000   0.000000
                    CHANNELS 3 Zrotation Xrotation Yrotation
                    JOINT LeftElbow
                    {
                        OFFSET  26.662100   0.001476   0.000517
                        CHANNELS 3 Zrotation Xrotation Yrotation
                        JOINT LeftWrist
                        {
                            OFFSET  28.869000  -0.000025  -0.000106
                            CHANNELS 3 Zrotation Xrotation Yrotation
                            JOINT LeftFinger0
                            {
                                OFFSET   2.044660  -2.323460   3.252850
                                CHANNELS 3 Zrotation Xrotation Yrotation
                                JOINT LeftFinger01
                                {
                                    OFFSET   3.088130   0.000000   0.000000
                                    CHANNELS 3 Zrotation Xrotation Yrotation
                                    JOINT LeftFinger02
                                    {
                                        OFFSET   2.639460   0.000000   0.000000
                                        CHANNELS 3 Zrotation Xrotation Yrotation
                                        End Site
                                        {
                                            OFFSET   2.582190   0.000000   0.000000
                                        }
                                    }
                                }
                            }
                            JOINT LeftFinger1
                            {
                                OFFSET   8.364480   0.000000   3.252850
                                CHANNELS 3 Zrotation Xrotation Yrotation
                                JOINT LeftFinger11
                                {
                                    OFFSET   4.646930   0.000000   0.000000
                                    CHANNELS 3 Zrotation Xrotation Yrotation
                                    JOINT LeftFinger12
                                    {
                                        OFFSET   2.323460   0.000000   0.000000
                                        CHANNELS 3 Zrotation Xrotation Yrotation
                                        End Site
                                        {
                                            OFFSET   2.273050   0.000000   0.000000
                                        }
                                    }
                                }
                            }
                            JOINT LeftFinger2
                            {
                                OFFSET   8.364490   0.000015   1.078090
                                CHANNELS 3 Zrotation Xrotation Yrotation
                                JOINT LeftFinger21
                                {
                                    OFFSET   5.111620   0.000000   0.000000
                                    CHANNELS 3 Zrotation Xrotation Yrotation
                                    JOINT LeftFinger22
                                    {
                                        OFFSET   2.788160   0.000016   0.000000
                                        CHANNELS 3 Zrotation Xrotation Yrotation
                                        End Site
                                        {
                                            OFFSET   2.727660   0.000000   0.000000
                                        }
                                    }
                                }
                            }
                            JOINT LeftFinger3
                            {
                                OFFSET   7.899780   0.000017  -1.078090
                                CHANNELS 3 Zrotation Xrotation Yrotation
                                JOINT LeftFinger31
                                {
                                    OFFSET   4.646930   0.000000   0.000000
                                    CHANNELS 3 Zrotation Xrotation Yrotation
                                    JOINT LeftFinger32
                                    {
                                        OFFSET   2.323470   0.000000   0.000000
                                        CHANNELS 3 Zrotation Xrotation Yrotation
                                        End Site
                                        {
                                            OFFSET   2.273050   0.000000   0.000000
                                        }
                                    }
                                }
                            }
                            JOINT LeftFinger4
                            {
                                OFFSET   7.435090   0.000000  -3.252850
                                CHANNELS 3 Zrotation Xrotation Yrotation
                                JOINT LeftFinger41
                                {
                                    OFFSET   3.717550   0.000000   0.000000
                                    CHANNELS 3 Zrotation Xrotation Yrotation
                                    JOINT LeftFinger42
                                    {
                                        OFFSET   1.858770   0.000000   0.000000
                                        CHANNELS 3 Zrotation Xrotation Yrotation
                                        End Site
                                        {
                                            OFFSET   1.818440   0.000000   0.000000
                                        }
                                    }
                                }
                            }
                        }
                    }
                }
            }
            JOINT RightCollar
            {
                OFFSET  -3.911900  19.017000  -0.467063
                CHANNELS 3 Zrotation Xrotation Yrotation
                JOINT RightShoulder
                {
                    OFFSET -10.383700   0.000019   0.000000
                    CHANNELS 3 Zrotation Xrotation Yrotation
                    JOINT RightElbow
                    {
                        OFFSET -26.662100   0.001175   0.000102
                        CHANNELS 3 Zrotation Xrotation Yrotation
                        JOINT RightWrist
                        {
                            OFFSET -28.869000   0.000016  -0.000079
                            CHANNELS 3 Zrotation Xrotation Yrotation
                            JOINT RightFinger0
                            {
                                OFFSET  -2.044660  -2.323490   3.252850
                                CHANNELS 3 Zrotation Xrotation Yrotation
                                JOINT RightFinger01
                                {
                                    OFFSET  -3.088140   0.000000   0.000000
                                    CHANNELS 3 Zrotation Xrotation Yrotation
                                    JOINT RightFinger02
                                    {
                                        OFFSET  -2.639460   0.000000   0.000000
                                        CHANNELS 3 Zrotation Xrotation Yrotation
                                        End Site
                                        {
                                            OFFSET  -2.582190   0.000000   0.000000
                                        }
                                    }
                                }
                            }
                            JOINT RightFinger1
                            {
                                OFFSET  -8.364480   0.000000   3.252850
                                CHANNELS 3 Zrotation Xrotation Yrotation
                                JOINT RightFinger11
                                {
                                    OFFSET  -4.646930   0.000000   0.000000
                                    CHANNELS 3 Zrotation Xrotation Yrotation
                                    JOINT RightFinger12
                                    {
                                        OFFSET  -2.323470   0.000000   0.000000
                                        CHANNELS 3 Zrotation Xrotation Yrotation
                                        End Site
                                        {
                                            OFFSET  -2.273050   0.000000   0.000000
                                        }
                                    }
                                }
                            }
                            JOINT RightFinger2
                            {
                                OFFSET  -8.364480   0.000000   1.078090
                                CHANNELS 3 Zrotation Xrotation Yrotation
                                JOINT RightFinger21
                                {
                                    OFFSET  -5.111620   0.000000   0.000000
                                    CHANNELS 3 Zrotation Xrotation Yrotation
                                    JOINT RightFinger22
                                    {
                                        OFFSET  -2.788160   0.000000   0.000000
                                        CHANNELS 3 Zrotation Xrotation Yrotation
                                        End Site
                                        {
                                            OFFSET  -2.727660   0.000000   0.000000
                                        }
                                    }
                                }
                            }
                            JOINT RightFinger3
                            {
                                OFFSET  -7.899780   0.000000  -1.078090
                                CHANNELS 3 Zrotation Xrotation Yrotation
                                JOINT RightFinger31
                                {
                                    OFFSET  -4.646930   0.000000   0.000000
                                    CHANNELS 3 Zrotation Xrotation Yrotation
                                    JOINT RightFinger32
                                    {
                                        OFFSET  -2.323470   0.000000   0.000000
                                        CHANNELS 3 Zrotation Xrotation Yrotation
                                        End Site
                                        {
                                            OFFSET  -2.273050   0.000000   0.000000
                                        }
                                    }
                                }
                            }
                            JOINT RightFinger4
                            {
                                OFFSET  -7.435090   0.000000  -3.252850
                                CHANNELS 3 Zrotation Xrotation Yrotation
                                JOINT RightFinger41
                                {
                                    OFFSET  -3.717550   0.000000   0.000000
                                    CHANNELS 3 Zrotation Xrotation Yrotation
                                    JOINT RightFinger42
                                    {
                                        OFFSET  -1.858770   0.000000   0.000000
                                        CHANNELS 3 Zrotation Xrotation Yrotation
                                        End Site
                                        {
                                            OFFSET  -1.818440   0.000000   0.000000
                                        }
                                    }
                                }
                            }
                        }
                    }
                }
            }
        }
    }
    JOINT LeftHip
    {
        OFFSET   9.783040   0.000000   0.000000
        CHANNELS 3 Zrotation Xrotation Yrotation
        JOINT LeftKnee
        {
            OFFSET   0.000032 -41.789100  -0.002222
            CHANNELS 3 Zrotation Xrotation Yrotation
            JOINT LeftAnkle
            {
                OFFSET   0.000087 -41.133200  -0.000135
                CHANNELS 3 Zrotation Xrotation Yrotation
                JOINT LeftToe
                {
                    OFFSET   0.000000  -6.358960  14.674500
                    CHANNELS 3 Zrotation Xrotation Yrotation
                    End Site
                    {
                        OFFSET   0.000000   0.000000   3.913200
                    }
                }
            }
        }
    }
    JOINT RightHip
    {
        OFFSET  -9.783040   0.000000   0.000000
        CHANNELS 3 Zrotation Xrotation Yrotation
        JOINT RightKnee
        {
            OFFSET   0.000047 -41.789100  -0.000896
            CHANNELS 3 Zrotation Xrotation Yrotation
            JOINT RightAnkle
            {
                OFFSET  -0.000117 -41.133300  -0.000248
                CHANNELS 3 Zrotation Xrotation Yrotation
                JOINT RightToe
                {
                    OFFSET   0.000000  -6.358970  14.674500
                    CHANNELS 3 Zrotation Xrotation Yrotation
                    End Site
                    {
                        OFFSET   0.000000   0.000000   3.913200
                    }
                }
            }
        }
    }
}
MOTION
Frames: 6
Frame Time:   0.016667
  1.097210  89.546500  -1.376170  -1.018230  -4.504220   2.090690   0.327638   1.486490  -0.584991   0.670786   2.969530  -1.179070   1.288570   1.591410  -0.034331   2.125990   3.222160   2.954450  -0.629858   5.425860  -0.197253 -73.121400  15.648200  -2.761110  -2.133930  -4.783390  -8.337300   6.365280  -9.879640   6.050110  42.001800  28.014800 -63.962800 -20.875800   0.001619   0.009713  -5.437900  -0.000447  -0.005627 -26.280500   4.478180  -8.955650 -21.790200  -0.003022  -0.011074 -15.249100  -0.004539  -0.008038 -26.424000   2.902830  -5.819340 -26.570700   0.000770   0.001060 -17.696100   0.002376  -0.008438 -26.848500   0.918659  -1.814160 -26.863000   0.001301  -0.011329 -17.890800   0.005011  -0.000122 -30.046200   0.511357  -0.883998 -45.075300   0.002830  -0.002826 -30.020100   0.006845  -0.003123   2.068790   1.270510   5.948550  75.085300   8.005220   1.872890   1.336250  -5.338910   2.641340  -9.503520 -10.347200   2.173470 -36.589200  31.622000  66.046500  33.035900   0.000000  -0.004237  11.518900  -0.002342  -0.004002  26.157200   5.712620  11.463900  21.870600  -0.004034   0.003879  15.309400  -0.002006   0.003363  25.801500   4.607770   9.423040  26.181900  -0.008304   0.006281  17.437200   0.000079   0.008052  24.468300   2.924700   6.393890  24.631800  -0.003243   0.003011  16.404800  -0.002069   0.008233  27.218900   1.669760   3.235660  40.899300   0.004685   0.013301  27.238900   0.003387   0.007011   2.324790   7.140810   1.042230   1.332410   0.142187   7.188160  -5.074920  -2.658160   2.855210  -0.000000   0.000000  -0.000000   0.130187   3.781220  -2.292760   1.331940   3.757890  -5.924340  -2.453730  -3.385800  -4.050810  -0.000000   0.000000   0.000000
  1.101470  89.546500  -1.376180  -1.017720  -4.504200   2.096960   0.327739   1.483160  -0.581068   0.670854   2.962900  -1.171210   1.295590   1.574940  -0.034331   2.135590   3.188940   2.928610  -0.627238   5.425860  -0.203007 -73.121400  15.646900  -2.761630  -2.128730  -4.774810  -8.337220   6.388650  -9.890380   6.063010  42.011600  28.021300 -63.970100 -20.864200   0.001618   0.009729  -5.432100  -0.000444  -0.005620 -26.273100   4.478260  -8.962650 -21.784100  -0.003021  -0.011072 -15.249100  -0.004540  -0.008038 -26.423300   2.906070  -5.826120 -26.570700   0.000770   0.001062 -17.696100   0.002376  -0.008437 -26.841000   0.926045  -1.829360 -26.855600   0.001301  -0.011328 -17.885900   0.005012  -0.000121 -30.037500   0.519849  -0.899006 -45.062400   0.002831  -0.002823 -30.011600   0.006845  -0.003123   2.069040   1.270530   5.941610  75.083600   8.021490   1.856560   1.343400  -5.347250   2.623330  -9.513440 -10.353500   2.169310 -36.594600  31.631900  66.046500  33.035900   0.000000  -0.004239  11.518800  -0.002350  -0.004000  26.141800   5.712580  11.465800  21.859400  -0.004031   0.003879  15.301200  -0.002004   0.003363  25.787600   4.607670   9.430670  26.168900  -0.008302   0.006281  17.428100   0.000079   0.008052  24.454200   2.924680   6.396640  24.618300  -0.003242   0.003009  16.395700  -0.002070   0.008231  27.197200   1.669770   3.244500  40.867200   0.004688   0.013303  27.217300   0.003385   0.007010   2.325260   7.129800   1.042120   1.331160   0.158017   7.186810  -5.071450  -2.672640   2.855240   0.000000   0.000000   0.000000   0.130283   3.774940  -2.295760   1.332820   3.764360  -5.924810  -2.454050  -3.386880  -4.056320   0.000000   0.000000   0.000000
  1.109250  89.546600  -1.376240  -1.016860  -4.504170   2.107520   0.327883   1.477660  -0.574171   0.670909   2.951920  -1.157380   1.307070   1.547490  -0.034330   2.151910   3.133460   2.888950  -0.621309   5.425870  -0.212744 -73.120800  15.637600  -2.765310  -2.117830  -4.753890  -8.336980   6.425290  -9.906680   6.082140  42.026900  28.031200 -63.981100 -20.846700   0.001617   0.009744  -5.423370  -0.000439  -0.005610 -26.265500   4.478300  -8.972830 -21.778100  -0.003018  -0.011067 -15.249000  -0.004542  -0.008035 -26.422300   2.911150  -5.835980 -26.570700   0.000771   0.001067 -17.696100   0.002376  -0.008433 -26.833200   0.937331  -1.852220 -26.848300   0.001302  -0.011323 -17.881000   0.005015  -0.000121 -30.028700   0.532391  -0.920972 -45.049500   0.002833  -0.002815 -30.003000   0.006843  -0.003121   2.069440   1.270560   5.930840  75.078700   8.044030   1.832620   1.349610  -5.355640   2.595370  -9.529920 -10.364000   2.160630 -36.602500  31.643900  66.049600  33.035900   0.000000  -0.004241  11.518000  -0.002358  -0.003998  26.125100   5.712450  11.472500  21.845000  -0.004026   0.003877  15.291500  -0.001999   0.003361  25.773200   4.607470   9.445620  26.154000  -0.008296   0.006280  17.418600   0.000082   0.008051  24.439800   2.924630   6.405840  24.603400  -0.003237   0.003004  16.385900  -0.002074   0.008225  27.174600   1.669800   3.253350  40.832900   0.004693   0.013305  27.194700   0.003381   0.007006   2.325730   7.118790   1.042010   1.329920   0.173848   7.181780  -5.064070  -2.687120   2.855300   0.000000   0.000000   0.000000   0.130229   3.764940  -2.298760   1.334460   3.775710  -5.927860  -2.454700  -3.390160  -4.064690  -0.000000   0.000000   0.000000
  1.117010  89.546600  -1.376410  -1.016220  -4.502260   2.115950   0.327986   1.473350  -0.567921   0.670877   2.943350  -1.144840   1.315370   1.525100  -0.034343   2.165150   3.087990   2.864670  -0.613208   5.428410  -0.219943 -73.116900  15.604400  -2.774530  -2.102450  -4.713120  -8.334600   6.450300  -9.916370   6.091530  42.038700  28.039200 -63.986900 -20.836600   0.001618   0.009742  -5.417710  -0.000434  -0.005604 -26.269600   4.476570  -8.977550 -21.781200  -0.003014  -0.011061 -15.249100  -0.004546  -0.008028 -26.430800   2.914440  -5.839960 -26.579500   0.000773   0.001077 -17.701900   0.002375  -0.008425 -26.842800   0.943848  -1.864290 -26.858200   0.001305  -0.011316 -17.887600   0.005021  -0.000121 -30.041400   0.538857  -0.931686 -45.068600   0.002838  -0.002801 -30.015800   0.006841  -0.003119   2.070110   1.267740   5.924740  75.071400   8.052820   1.820400   1.347150  -5.354650   2.574950  -9.543370 -10.372100   2.148600 -36.603200  31.645200  66.057300  33.031000   0.000000  -0.004232  11.514000  -0.002354  -0.004002  26.121600   5.718050  11.486200  21.841700  -0.004020   0.003874  15.289900  -0.001994   0.003358  25.773900   4.614150   9.462630  26.151800  -0.008286   0.006271  17.418100   0.000090   0.008043  24.438500   2.931350   6.423420  24.601800  -0.003228   0.002996  16.385300  -0.002077   0.008218  27.173600   1.669870   3.252180  40.830300   0.004695   0.013302  27.193600   0.003378   0.006999   2.321680   7.147640   1.046860   1.327940   0.111595   7.170950  -5.053270  -2.659100   2.857250  -0.000000   0.000000  -0.000000   0.128134   3.758280  -2.291270   1.336310   3.785770  -5.938490  -2.455920  -3.395860  -4.070590  -0.000000   0.000000   0.000000
  1.125300  89.546700  -1.376550  -1.015590  -4.498450   2.125000   0.327982   1.469060  -0.561197   0.670671   2.934810  -1.131350   1.324260   1.503520  -0.034368   2.179900   3.044080   2.843790  -0.603365   5.432100  -0.229124 -73.104900  15.579100  -2.787800  -2.087940  -4.684710  -8.331650   6.471400  -9.924130   6.099900  42.044500  28.044800 -63.988000 -20.829100   0.001622   0.009739  -5.414540  -0.000427  -0.005602 -26.273800   4.474840  -8.981100 -21.784400  -0.003007  -0.011054 -15.249100  -0.004551  -0.008020 -26.439400   2.917490  -5.844030 -26.588300   0.000777   0.001092 -17.707800   0.002375  -0.008416 -26.852400   0.949856  -1.875370 -26.868000   0.001308  -0.011305 -17.894100   0.005027  -0.000121 -30.054100   0.543758  -0.939664 -45.087800   0.002844  -0.002783 -30.028500   0.006838  -0.003116   2.070710   1.264910   5.917890  75.060400   8.055350   1.811950   1.343110  -5.352020   2.561860  -9.556010 -10.379900   2.137200 -36.605900  31.646000  66.064200  33.022900   0.000000  -0.004223  11.509300  -0.002350  -0.004006  26.117800   5.727560  11.503300  21.840900  -0.004013   0.003869  15.289400  -0.001984   0.003354  25.773600   4.625500   9.481870  26.151400  -0.008275   0.006257  17.418100   0.000101   0.008032  24.436700   2.943120   6.445670  24.601600  -0.003217   0.002984  16.385100  -0.002082   0.008208  27.173500   1.669920   3.250160  40.829900   0.004698   0.013298  27.193500   0.003372   0.006991   2.314200   7.176490   1.052820   1.325930   0.049339   7.158620  -5.044770  -2.631090   2.859180   0.000000   0.000000   0.000000   0.125048   3.751500  -2.283780   1.338400   3.796890  -5.951960  -2.457090  -3.403340  -4.073640  -0.000000   0.000000   0.000000
  1.133510  89.546800  -1.376500  -1.014890  -4.493650   2.135320   0.327806   1.465040  -0.553830   0.670170   2.926810  -1.116580   1.335870   1.483630  -0.034409   2.198890   3.003680   2.823490  -0.592659   5.433060  -0.244728 -73.081200  15.581800  -2.804860  -2.079860  -4.695220  -8.330770   6.485700  -9.929810   6.110540  42.049600  28.045000 -63.983300 -20.824200   0.001634   0.009745  -5.414120  -0.000418  -0.005604 -26.263800   4.476160  -8.984290 -21.776500  -0.002997  -0.011045 -15.243600  -0.004558  -0.008012 -26.431700   2.920310  -5.851620 -26.581200   0.000782   0.001111 -17.703100   0.002374  -0.008405 -26.845000   0.956837  -1.889740 -26.860800   0.001312  -0.011292 -17.889200   0.005036  -0.000121 -30.049000   0.548216  -0.947528 -45.080400   0.002851  -0.002760 -30.023600   0.006834  -0.003112   2.070900   1.265340   5.907020  75.043800   8.055330   1.805000   1.335930  -5.348750   2.558810  -9.565170 -10.385900   2.132540 -36.618500  31.651500  66.068500  33.014700   0.000000  -0.004232  11.506900  -0.002347  -0.003993  26.114400   5.735560  11.522000  21.840100  -0.004007   0.003861  15.288400  -0.001968   0.003347  25.769700   4.635230   9.503280  26.151700  -0.008267   0.006247  17.418100   0.000114   0.008024  24.434500   2.954400   6.471520  24.601600  -0.003202   0.002967  16.384900  -0.002089   0.008196  27.173600   1.669950   3.248330  40.830200   0.004707   0.013293  27.193500   0.003362   0.006981   2.306090   7.153660   1.054050   1.325760   0.089168   7.146830  -5.042550  -2.653260   2.856980  -0.000000   0.000000  -0.000000   0.123232   3.742380  -2.292860   1.337780   3.810100  -5.962760  -2.455420  -3.412360  -4.064520  -0.000000   0.000000  -0.000000
